<?xml version="1.0" encoding="utf-8"?>
<!-- Generator: Adobe Illustrator 24.1.2, SVG Export Plug-In . SVG Version: 6.00 Build 0)  -->
<svg version="1.1" id="Capa_1" xmlns="http://www.w3.org/2000/svg" xmlns:xlink="http://www.w3.org/1999/xlink" x="0px" y="0px"
	 viewBox="0 0 330 330" style="enable-background:new 0 0 330 330;" xml:space="preserve">
<style type="text/css">
	.st0{fill:#FFFFFF;}
</style>
<g>
	<path class="st0" d="M35,270h45v45c0,8.3,6.7,15,15,15h200c8.3,0,15-6.7,15-15V75c0-8.3-6.7-15-15-15h-45V15c0-8.3-6.7-15-15-15H35
		c-8.3,0-15,6.7-15,15v240C20,263.3,26.7,270,35,270z M280,300H110V90h170V300z M50,30h170v30H95c-8.3,0-15,6.7-15,15v165H50V30z"/>
	<path class="st0" d="M155,120c-8.3,0-15,6.7-15,15s6.7,15,15,15h80c8.3,0,15-6.7,15-15s-6.7-15-15-15H155z"/>
	<path class="st0" d="M235,180h-80c-8.3,0-15,6.7-15,15s6.7,15,15,15h80c8.3,0,15-6.7,15-15S243.3,180,235,180z"/>
	<path class="st0" d="M235,240h-80c-8.3,0-15,6.7-15,15s6.7,15,15,15h80c8.3,0,15-6.7,15-15S243.3,240,235,240z"/>
</g>
</svg>
